<svg xmlns="http://www.w3.org/2000/svg" viewBox="0 0 267.28 251.21"><defs><style>.cls-1{font-size:56.03px;font-family:DINAlternate-Bold, DIN Alternate;font-weight:700;letter-spacing:-0.02em;}.cls-1,.cls-6{fill:#00a7e5;}.cls-2{letter-spacing:0.06em;}.cls-3{letter-spacing:0.06em;}.cls-4{letter-spacing:-0.02em;}.cls-5{fill:#ed1c24;}</style></defs><title>HealthID logo</title><g id="text"><text class="cls-1" transform="translate(0 235.84)">M<tspan class="cls-2" x="41.34" y="0">y</tspan><tspan x="69.57" y="0">Healt</tspan><tspan class="cls-3" x="186.33" y="0">h</tspan><tspan class="cls-4" x="219.78" y="0">ID</tspan></text></g><g id="animate"><path class="cls-5" d="M179.71,214.18,72,214.25l95.69-11.76V134.71a38.07,38.07,0,1,1,76.13,0V197.4a18.41,18.41,0,0,1-18.38,18.38h-7.07a18.7,18.7,0,0,1-18.68-18.68V154.43c-3.78-3.77-7.58-7.53-11.34-11.33a10.11,10.11,0,0,1,5-17.1,9.81,9.81,0,0,1,9.32,2.73c1,1,1.93,2,3,3l2.76-2.82a10.16,10.16,0,0,1,17.31,5,9.79,9.79,0,0,1-2.84,9.2l-11,11v43a6.56,6.56,0,0,0,6.55,6.55h7.07a6.26,6.26,0,0,0,6.25-6.25V134.71a25.94,25.94,0,1,0-51.87,0v72.47" transform="translate(-31.99 -45.38)"/></g><g id="don_t" data-name="don&apos;t"><path class="cls-6" d="M205.75,45.38c-49.57,0-89.24,41.78-92.31,90.6L32,145.93h92.34l0-7a81.39,81.39,0,1,1,162.78,0V197a6.79,6.79,0,0,1-6.78,6.78h-3.7a6.79,6.79,0,0,1-6.78-6.78V135.72a67.73,67.73,0,0,0-8.36-32.61h0A6.07,6.07,0,0,0,250.9,109h0a55.63,55.63,0,0,1,6.85,26.76V197a18.93,18.93,0,0,0,18.91,18.91h3.7A18.93,18.93,0,0,0,299.27,197V138.91A93.63,93.63,0,0,0,205.75,45.38Z" transform="translate(-31.99 -45.38)"/><path class="cls-6" d="M205.75,71.6h-.44a67.76,67.76,0,0,0-67.26,67.68v31.86L52,184h98.14l.05-7V139.28a55.63,55.63,0,0,1,55.57-55.56h0a6.06,6.06,0,0,0,0-12.11Z" transform="translate(-31.99 -45.38)"/></g></svg>