<?xml version="1.0" encoding="UTF-8"?>
<svg width="18px" height="20px" viewBox="0 0 18 20" version="1.1" xmlns="http://www.w3.org/2000/svg" xmlns:xlink="http://www.w3.org/1999/xlink">
    <!-- Generator: sketchtool 61.1 (101010) - https://sketch.com -->
    <title>82BCC3D5-8929-4A62-86D1-42437D23F2F1</title>
    <desc>Created with sketchtool.</desc>
    <g id="Page-1" stroke="none" stroke-width="1" fill="none" fill-rule="evenodd">
        <g id="01-Dashboard-OTP" transform="translate(-748.000000, -392.000000)">
            <g id="OTP" transform="translate(443.000000, 160.000000)">
                <g id="content" transform="translate(32.000000, 32.000000)">
                    <g id="Password-Copy" transform="translate(254.000000, 182.000000)">
                        <g id="lock-24px" transform="translate(16.000000, 16.000000)">
                            <g id="date_range-24px-(1)">
                                <polygon id="Path" points="0 0 24 0 24 24 0 24"></polygon>
                                <path d="M21,6.00000006 L21,20.0000001 C21,21.0999996 20.1,22.0000001 19,22.0000001 L5,22.0000001 C3.89,22.0000001 3,21.0999996 3,20.0000001 L3.01,6.00000006 C3.01,4.89999999 3.89,4.00000006 5,4.00000006 L6,4.00000006 L6,3.00000006 C6,2.44771531 6.44771525,2.00000006 7,2.00000006 C7.55228475,2.00000006 8,2.44771531 8,3.00000006 L8,4.00000006 L8,4.00000006 L16,4.00000006 L16,3.00000006 C16,2.44771531 16.4477153,2.00000006 17,2.00000006 C17.5522847,2.00000006 18,2.44771531 18,3.00000006 L18,4.00000006 L18,4.00000006 L19,4.00000006 C20.1,4.00000006 21,4.89999999 21,6.00000006 Z M5.00000006,8.00000018 L19.0000001,8.00000018 L19.0000001,6.00000018 L5.00000006,6.00000018 L5.00000006,8.00000018 Z M19.0000001,20.0000003 L19.0000001,10.0000003 L5.00000006,10.0000003 L5.00000006,20.0000003 L19.0000001,20.0000003 Z M16,13.0000001 C16.5522847,13.0000001 17,12.5522848 17,12.0000001 C17,11.4477153 16.5522847,11.0000001 16,11.0000001 C15.4477153,11.0000001 15,11.4477153 15,12.0000001 C15,12.5522848 15.4477153,13.0000001 16,13.0000001 Z M12.0000002,11.0000001 C12.552285,11.0000001 13.0000002,11.4477153 13.0000002,12.0000001 C13.0000002,12.5522848 12.552285,13.0000001 12.0000002,13.0000001 C11.4477155,13.0000001 11.0000002,12.5522848 11.0000002,12.0000001 C11.0000002,11.4477153 11.4477155,11.0000001 12.0000002,11.0000001 Z M8.00000012,11.0000001 C8.55228487,11.0000001 9.00000012,11.4477153 9.00000012,12.0000001 C9.00000012,12.5522848 8.55228487,13.0000001 8.00000012,13.0000001 C7.44771537,13.0000001 7.00000012,12.5522848 7.00000012,12.0000001 C7.00000012,11.4477153 7.44771537,11.0000001 8.00000012,11.0000001 Z" id="Shape" fill="#239688" fill-rule="nonzero"></path>
                            </g>
                        </g>
                    </g>
                </g>
            </g>
        </g>
    </g>
</svg>