<?xml version="1.0" encoding="UTF-8"?>
<svg width="12px" height="14px" viewBox="0 0 12 14" version="1.1" xmlns="http://www.w3.org/2000/svg" xmlns:xlink="http://www.w3.org/1999/xlink">
    <!-- Generator: sketchtool 61.1 (101010) - https://sketch.com -->
    <title>7DB821FF-786E-40AB-8EA8-56A0796D7E5C</title>
    <desc>Created with sketchtool.</desc>
    <g id="Page-1" stroke="none" stroke-width="1" fill="none" fill-rule="evenodd">
        <g id="01-Dashboard-final" transform="translate(-174.000000, -233.000000)">
            <g id="User-Proflle" transform="translate(48.000000, 170.000000)">
                <g id="User-profile-card" transform="translate(0.000000, 0.000000)">
                    <g id="Group-3">
                        <g transform="translate(124.000000, 24.000000)">
                            <g id="Group-2" transform="translate(0.000000, 38.000000)">
                                <g id="icon/16px/date">
                                    <g id="date_range-24px-(1)">
                                        <polygon id="Path" points="0 0 16 0 16 16 0 16"></polygon>
                                        <path d="M14,4 L14,13.3333333 C14,14.0666667 13.4,14.6666667 12.6666667,14.6666667 L3.33333333,14.6666667 C2.59333333,14.6666667 2,14.0666667 2,13.3333333 L2.00666667,4 C2.00666667,3.26666667 2.59333333,2.66666667 3.33333333,2.66666667 L4,2.66666667 L4,2 C4,1.63181017 4.29847683,1.33333333 4.66666667,1.33333333 C5.0348565,1.33333333 5.33333333,1.63181017 5.33333333,2 L5.33333333,2.66666667 L5.33333333,2.66666667 L10.6666667,2.66666667 L10.6666667,2 C10.6666667,1.63181017 10.9651435,1.33333333 11.3333333,1.33333333 C11.7015232,1.33333333 12,1.63181017 12,2 L12,2.66666667 L12,2.66666667 L12.6666667,2.66666667 C13.4,2.66666667 14,3.26666667 14,4 Z M3.33333333,5.33333333 L12.6666667,5.33333333 L12.6666667,4 L3.33333333,4 L3.33333333,5.33333333 Z M12.6666667,13.3333333 L12.6666667,6.66666667 L3.33333333,6.66666667 L3.33333333,13.3333333 L12.6666667,13.3333333 Z M10.6666667,8.66666667 C11.0348565,8.66666667 11.3333333,8.36818983 11.3333333,8 C11.3333333,7.63181017 11.0348565,7.33333333 10.6666667,7.33333333 C10.2984768,7.33333333 10,7.63181017 10,8 C10,8.36818983 10.2984768,8.66666667 10.6666667,8.66666667 Z M8,7.33333333 C8.36818983,7.33333333 8.66666667,7.63181017 8.66666667,8 C8.66666667,8.36818983 8.36818983,8.66666667 8,8.66666667 C7.63181017,8.66666667 7.33333333,8.36818983 7.33333333,8 C7.33333333,7.63181017 7.63181017,7.33333333 8,7.33333333 Z M5.33333333,7.33333333 C5.70152317,7.33333333 6,7.63181017 6,8 C6,8.36818983 5.70152317,8.66666667 5.33333333,8.66666667 C4.9651435,8.66666667 4.66666667,8.36818983 4.66666667,8 C4.66666667,7.63181017 4.9651435,7.33333333 5.33333333,7.33333333 Z" id="Shape" fill="#596981" fill-rule="nonzero"></path>
                                    </g>
                                </g>
                            </g>
                        </g>
                    </g>
                </g>
            </g>
        </g>
    </g>
</svg>