<?xml version="1.0" encoding="UTF-8"?>
<svg width="16px" height="21px" viewBox="0 0 16 21" version="1.1" xmlns="http://www.w3.org/2000/svg" xmlns:xlink="http://www.w3.org/1999/xlink">
    <!-- Generator: sketchtool 61.1 (101010) - https://sketch.com -->
    <title>9F88640A-76DD-4C5B-AD45-957B7B15B154</title>
    <desc>Created with sketchtool.</desc>
    <g id="Page-1" stroke="none" stroke-width="1" fill="none" fill-rule="evenodd">
        <g id="01-Dashboard-OTP" transform="translate(-495.000000, -412.000000)">
            <g id="OTP" transform="translate(443.000000, 181.000000)">
                <g id="content" transform="translate(32.000000, 32.000000)">
                    <g id="Password" transform="translate(0.000000, 182.000000)">
                        <g id="lock-24px" transform="translate(16.000000, 16.000000)">
                            <g>
                                <g id="Group">
                                    <polygon id="Path" points="0 0 24 0 24 24 0 24"></polygon>
                                    <polygon id="Path" opacity="0.87" points="0 0 24 0 24 24 0 24"></polygon>
                                </g>
                                <path d="M18,8 L17,8 L17,6 C17,3.24 14.76,1 12,1 C9.24,1 7,3.24 7,6 L7,8 L6,8 C4.9,8 4,8.9 4,10 L4,20 C4,21.1 4.9,22 6,22 L18,22 C19.1,22 20,21.1 20,20 L20,10 C20,8.9 19.1,8 18,8 Z M9,6 C9,4.34 10.34,3 12,3 C13.66,3 15,4.34 15,6 L15,8 L9,8 L9,6 Z M18,20 L6,20 L6,10 L18,10 L18,20 Z" id="Shape" fill="#239688" fill-rule="nonzero"></path>
                            </g>
                            <path d="M13.4121094,17.15625 C13.6137733,17.0033758 13.6557466,16.7171042 13.5064565,16.5127728 L12.6152344,15.2929688 L12.6152344,15.2929688 L13.9679887,14.8919895 C14.2129475,14.8193795 14.3526638,14.5619392 14.2800539,14.3169805 C14.2798039,14.3161373 14.2795516,14.3152948 14.2792969,14.3144531 C14.2092635,14.0830385 13.9648917,13.9522132 13.7334771,14.0222466 C13.7249793,14.0248182 13.7165618,14.0276478 13.7082361,14.0307314 L12.4042969,14.5136719 L12.4042969,14.5136719 L12.4500523,12.9168083 C12.4569424,12.6763414 12.2675911,12.4758189 12.0271242,12.4689287 C12.0229667,12.4688096 12.0188077,12.46875 12.0146484,12.46875 C11.7734832,12.46875 11.5779801,12.6642531 11.5779801,12.9054183 C11.5779801,12.9092256 11.5780299,12.9130328 11.5781295,12.9168389 L11.6191406,14.484375 L11.6191406,14.484375 L10.2832064,13.9889292 C10.0575629,13.9052468 9.8068047,14.0203291 9.72312234,14.2459726 C9.72012037,14.2540672 9.71735962,14.2622492 9.71484375,14.2705078 C9.64086526,14.5133502 9.77775653,14.7701843 10.020599,14.8441628 C10.0214888,14.8444339 10.0223795,14.8447023 10.023271,14.844968 L11.3496094,15.2402344 L11.3496094,15.2402344 L10.438539,16.4912564 C10.2912896,16.6934495 10.3358304,16.9767286 10.5380235,17.123978 C10.5380443,17.1239931 10.5380651,17.1240083 10.5380859,17.1240234 C10.7286385,17.2627457 10.9955684,17.2207289 11.1342907,17.0301764 C11.1392774,17.0233266 11.1440589,17.0163298 11.1486291,17.0091953 L11.9589844,15.7441406 L11.9589844,15.7441406 L12.8015096,17.0486957 C12.9281957,17.244855 13.1899136,17.301174 13.3860728,17.1744878 C13.3949772,17.1687371 13.4036622,17.1626535 13.4121094,17.15625 Z" id="*" fill="#239688" fill-rule="nonzero"></path>
                        </g>
                    </g>
                </g>
            </g>
        </g>
    </g>
</svg>